<svg width="21" height="16" viewBox="0 0 21 16" fill="none" xmlns="http://www.w3.org/2000/svg">
<g clip-path="url(#clip0_575_9437)">
<path d="M16.6223 1.21426C15.9098 0.493164 14.9344 0.0947266 13.9254 0.0947266C12.9164 0.0947266 11.941 0.493164 11.2289 1.21426C10.5082 1.92637 10.1094 2.90176 10.1094 3.91074C10.1094 4.41113 10.2109 4.90293 10.3977 5.36934C10.5926 5.83574 10.8727 6.25137 11.2285 6.60762C11.5844 6.96387 12 7.24355 12.4668 7.43848C12.9246 7.6252 13.425 7.72676 13.9254 7.72676C14.4258 7.72676 14.9262 7.6252 15.384 7.43848C15.8504 7.24355 16.266 6.96348 16.6223 6.60762C16.9785 6.25137 17.2582 5.83574 17.4531 5.36934C17.6398 4.90293 17.7414 4.41113 17.7414 3.91074C17.7414 2.90176 17.343 1.92637 16.6219 1.21426H16.6223ZM15.7234 5.70879C15.2484 6.18379 14.6039 6.45488 13.9258 6.45488C13.2477 6.45488 12.6027 6.1834 12.1281 5.70879C11.6531 5.23379 11.382 4.58105 11.382 3.91113C11.382 3.24121 11.6535 2.58809 12.1281 2.11348C12.6031 1.63027 13.2477 1.36738 13.9258 1.36738C14.6039 1.36738 15.2488 1.63027 15.7234 2.11348C16.1984 2.58848 16.4695 3.23262 16.4695 3.91113C16.4695 4.58965 16.198 5.23418 15.7234 5.70879Z" fill="#FAFAFA"/>
<path d="M5.47844 15.2637H1.57532C1.13782 15.2637 0.723363 15.0723 0.437816 14.7379C0.1593 14.411 0.0374251 13.9828 0.104222 13.5637C0.342503 12.0688 1.02063 10.9195 2.11946 10.1485C4.30539 8.61408 7.35539 9.17462 7.48352 9.2004C7.82844 9.26564 8.05422 9.59884 7.9886 9.94337C7.92258 10.2871 7.58899 10.5141 7.24563 10.45C7.21985 10.4449 4.58508 9.96798 2.84485 11.193C2.04133 11.7594 1.54172 12.6238 1.36008 13.7645C1.34914 13.8309 1.37883 13.882 1.40539 13.9125C1.42571 13.9363 1.48313 13.9922 1.57532 13.9922H5.47844C5.82961 13.9922 6.11438 14.277 6.11438 14.6281C6.11438 14.9793 5.82961 15.2641 5.47844 15.2641V15.2637Z" fill="#FAFAFA"/>
<path d="M5.65688 7.7252C4.80767 7.7252 4.00884 7.39434 3.40845 6.79395C2.80806 6.19355 2.47681 5.39434 2.47681 4.54512C2.47681 3.6959 2.80767 2.89746 3.40845 2.29668C4.61001 1.09512 6.70415 1.09512 7.90571 2.29668C8.5061 2.89707 8.83696 3.6959 8.83696 4.54512C8.83696 5.39434 8.5061 6.19355 7.90571 6.79395C7.30532 7.39434 6.50649 7.7252 5.65688 7.7252ZM5.65688 2.4252C5.09907 2.4252 4.55259 2.65176 4.15806 3.04629C3.76353 3.44082 3.53696 3.9873 3.53696 4.54512C3.53696 5.10293 3.75767 5.64395 4.15806 6.04434C4.95884 6.84512 6.35532 6.84512 7.15649 6.04434C7.55688 5.64395 7.7772 5.11152 7.7772 4.54512C7.7772 3.97871 7.55688 3.44668 7.15649 3.04629C6.7561 2.6459 6.22368 2.4252 5.65727 2.4252H5.65688Z" fill="#FAFAFA"/>
<path d="M18.6044 15.2755H9.23256C8.79623 15.2755 8.38334 15.0849 8.09936 14.7521C7.82202 14.4267 7.70092 14.0017 7.76733 13.5845C8.38139 9.72787 12.0888 8.94623 13.9705 9.081C18.6162 9.10248 19.7747 12.1849 20.0556 13.5083C20.1458 13.9388 20.038 14.3822 19.7599 14.7255C19.4767 15.0751 19.0552 15.2755 18.6048 15.2755H18.6044ZM13.6728 10.3318C12.7302 10.3318 9.52202 10.5677 9.01069 13.7833C8.99936 13.8513 9.02983 13.9033 9.05678 13.9349C9.07788 13.9599 9.13725 14.0169 9.23217 14.0169H18.604C18.7025 14.0169 18.7615 13.9579 18.7814 13.9326C18.8087 13.8986 18.8384 13.8431 18.8228 13.7693C18.4931 12.2142 17.3751 10.3556 13.9236 10.3384C13.897 10.3369 13.8083 10.3318 13.6728 10.3318Z" fill="#FAFAFA"/>
</g>
<defs>
<clipPath id="clip0_575_9437">
<rect width="20" height="15.1813" fill="white" transform="translate(0.0863037 0.0947266)"/>
</clipPath>
</defs>
</svg>
