<svg width="316" height="71" viewBox="0 0 316 71" fill="none" xmlns="http://www.w3.org/2000/svg">
<path d="M19.9057 0.879883V27.1799H46.9057V0.879883H66.7057V70.8799H46.9057V43.5799H19.9057V70.8799H0.105713V0.879883H19.9057Z" fill="url(#paint0_linear_912_3793)"/>
<path d="M19.9057 0.879883V27.1799H46.9057V0.879883H66.7057V70.8799H46.9057V43.5799H19.9057V70.8799H0.105713V0.879883H19.9057Z" fill="url(#paint1_linear_912_3793)"/>
<path fill-rule="evenodd" clip-rule="evenodd" d="M123.522 1.78127C138.304 3.39305 150.835 14.1695 153.114 28.8637C153.497 31.3324 153.729 33.8545 153.729 36.3416C153.729 50.7694 144.475 63.4624 130.788 68.364C130.788 68.364 125.787 70.8187 116.876 70.8791C97.0628 69.6169 89.5975 58.9251 89.5975 58.9251C77.2313 47.3165 76.7586 23.6681 76.7586 23.6681V17.7215C76.7315 15.3964 76.3223 7.96212 71.7303 0.943727C71.7303 0.943727 90.1066 0.72281 112.329 1.10327C116.134 1.16068 119.854 1.38129 123.522 1.78127ZM116.06 52.2726C122.274 53.1357 133.05 48.1897 133.05 35.9193C133.05 26.7909 125.443 19.3909 116.06 19.3909H97.0718C97.0718 19.3909 97.6419 25.056 98.0767 32.1977C98.74 43.092 106.838 50.9916 116.06 52.2726Z" fill="url(#paint2_linear_912_3793)"/>
<path fill-rule="evenodd" clip-rule="evenodd" d="M123.522 1.78127C138.304 3.39305 150.835 14.1695 153.114 28.8637C153.497 31.3324 153.729 33.8545 153.729 36.3416C153.729 50.7694 144.475 63.4624 130.788 68.364C130.788 68.364 125.787 70.8187 116.876 70.8791C97.0628 69.6169 89.5975 58.9251 89.5975 58.9251C77.2313 47.3165 76.7586 23.6681 76.7586 23.6681V17.7215C76.7315 15.3964 76.3223 7.96212 71.7303 0.943727C71.7303 0.943727 90.1066 0.72281 112.329 1.10327C116.134 1.16068 119.854 1.38129 123.522 1.78127ZM116.06 52.2726C122.274 53.1357 133.05 48.1897 133.05 35.9193C133.05 26.7909 125.443 19.3909 116.06 19.3909H97.0718C97.0718 19.3909 97.6419 25.056 98.0767 32.1977C98.74 43.092 106.838 50.9916 116.06 52.2726Z" fill="url(#paint3_linear_912_3793)"/>
<path fill-rule="evenodd" clip-rule="evenodd" d="M186.878 1.78127C172.096 3.39305 159.565 14.1695 157.286 28.8637C156.903 31.3324 156.671 33.8545 156.671 36.3416C156.671 50.7694 165.925 63.4624 179.613 68.364C179.613 68.364 184.614 70.8187 193.525 70.8791C213.338 69.6169 220.803 58.9251 220.803 58.9251C233.169 47.3165 233.642 23.6681 233.642 23.6681V17.7215C233.669 15.3964 234.078 7.96212 238.67 0.943727C238.67 0.943727 220.294 0.72281 198.071 1.10327C194.266 1.16068 190.547 1.38129 186.878 1.78127ZM194.34 52.2726C188.127 53.1357 177.351 48.1897 177.351 35.9193C177.351 26.7909 184.957 19.3909 194.34 19.3909H213.329C213.329 19.3909 212.759 25.056 212.324 32.1977C211.661 43.092 203.562 50.9916 194.34 52.2726Z" fill="url(#paint4_linear_912_3793)"/>
<path fill-rule="evenodd" clip-rule="evenodd" d="M186.878 1.78127C172.096 3.39305 159.565 14.1695 157.286 28.8637C156.903 31.3324 156.671 33.8545 156.671 36.3416C156.671 50.7694 165.925 63.4624 179.613 68.364C179.613 68.364 184.614 70.8187 193.525 70.8791C213.338 69.6169 220.803 58.9251 220.803 58.9251C233.169 47.3165 233.642 23.6681 233.642 23.6681V17.7215C233.669 15.3964 234.078 7.96212 238.67 0.943727C238.67 0.943727 220.294 0.72281 198.071 1.10327C194.266 1.16068 190.547 1.38129 186.878 1.78127ZM194.34 52.2726C188.127 53.1357 177.351 48.1897 177.351 35.9193C177.351 26.7909 184.957 19.3909 194.34 19.3909H213.329C213.329 19.3909 212.759 25.056 212.324 32.1977C211.661 43.092 203.562 50.9916 194.34 52.2726Z" fill="url(#paint5_linear_912_3793)"/>
<path d="M243.694 70.8799H276.794C299.994 70.8799 315.894 57.3799 315.894 35.8799C315.894 14.3799 299.994 0.879883 276.794 0.879883H243.694V70.8799ZM263.494 55.0799V16.6799H275.994C287.894 16.6799 295.894 23.7799 295.894 35.8799C295.894 47.9799 287.894 55.0799 275.994 55.0799H263.494Z" fill="url(#paint6_linear_912_3793)"/>
<path d="M243.694 70.8799H276.794C299.994 70.8799 315.894 57.3799 315.894 35.8799C315.894 14.3799 299.994 0.879883 276.794 0.879883H243.694V70.8799ZM263.494 55.0799V16.6799H275.994C287.894 16.6799 295.894 23.7799 295.894 35.8799C295.894 47.9799 287.894 55.0799 275.994 55.0799H263.494Z" fill="url(#paint7_linear_912_3793)"/>
<defs>
<linearGradient id="paint0_linear_912_3793" x1="-207.931" y1="-41.2295" x2="296.695" y2="200.387" gradientUnits="userSpaceOnUse">
<stop stop-color="#F8955D"/>
<stop offset="1" stop-color="#A8351B"/>
</linearGradient>
<linearGradient id="paint1_linear_912_3793" x1="44.7627" y1="10.4254" x2="226.584" y2="120.399" gradientUnits="userSpaceOnUse">
<stop stop-color="#D3683F"/>
<stop offset="1" stop-color="#B64527"/>
</linearGradient>
<linearGradient id="paint2_linear_912_3793" x1="-207.931" y1="-41.2295" x2="296.695" y2="200.387" gradientUnits="userSpaceOnUse">
<stop stop-color="#F8955D"/>
<stop offset="1" stop-color="#A8351B"/>
</linearGradient>
<linearGradient id="paint3_linear_912_3793" x1="44.7627" y1="10.4254" x2="226.584" y2="120.399" gradientUnits="userSpaceOnUse">
<stop stop-color="#D3683F"/>
<stop offset="1" stop-color="#B64527"/>
</linearGradient>
<linearGradient id="paint4_linear_912_3793" x1="-207.931" y1="-41.2295" x2="296.695" y2="200.387" gradientUnits="userSpaceOnUse">
<stop stop-color="#F8955D"/>
<stop offset="1" stop-color="#A8351B"/>
</linearGradient>
<linearGradient id="paint5_linear_912_3793" x1="44.7627" y1="10.4254" x2="226.584" y2="120.399" gradientUnits="userSpaceOnUse">
<stop stop-color="#D3683F"/>
<stop offset="1" stop-color="#B64527"/>
</linearGradient>
<linearGradient id="paint6_linear_912_3793" x1="-207.931" y1="-41.2295" x2="296.695" y2="200.387" gradientUnits="userSpaceOnUse">
<stop stop-color="#F8955D"/>
<stop offset="1" stop-color="#A8351B"/>
</linearGradient>
<linearGradient id="paint7_linear_912_3793" x1="44.7627" y1="10.4254" x2="226.584" y2="120.399" gradientUnits="userSpaceOnUse">
<stop stop-color="#D3683F"/>
<stop offset="1" stop-color="#B64527"/>
</linearGradient>
</defs>
</svg>
