<svg width="40" height="41" viewBox="0 0 40 41" fill="none" xmlns="http://www.w3.org/2000/svg">
<circle cx="20" cy="20.6787" r="20" fill="white" fill-opacity="0.12"/>
<path fill-rule="evenodd" clip-rule="evenodd" d="M14.6629 16.1431C17.1533 16.4146 19.2644 18.2301 19.6484 20.7057C19.7129 21.1216 19.752 21.5465 19.752 21.9655C19.752 24.3961 18.193 26.5346 15.887 27.3603C15.887 27.3603 15.0445 27.7739 13.5432 27.7841C10.2053 27.5714 8.94761 25.7701 8.94761 25.7701C6.86426 23.8144 6.78463 19.8304 6.78463 19.8304V18.8285C6.78006 18.4368 6.71113 17.1844 5.9375 16.002C5.9375 16.002 9.03338 15.9647 12.7773 16.0288C13.4183 16.0385 14.0449 16.0757 14.6629 16.1431ZM13.4059 24.6494C14.4527 24.7948 16.2681 23.9615 16.2681 21.8943C16.2681 20.3565 14.9866 19.1098 13.4059 19.1098H10.2068C10.2068 19.1098 10.3029 20.0642 10.3761 21.2673C10.4879 23.1027 11.8522 24.4336 13.4059 24.6494Z" fill="#A1A2A5"/>
<path fill-rule="evenodd" clip-rule="evenodd" d="M25.3371 16.1431C22.8467 16.4146 20.7356 18.2301 20.3516 20.7057C20.2871 21.1216 20.248 21.5465 20.248 21.9655C20.248 24.3961 21.807 26.5346 24.113 27.3603C24.113 27.3603 24.9555 27.7739 26.4568 27.7841C29.7947 27.5714 31.0524 25.7701 31.0524 25.7701C33.1357 23.8144 33.2154 19.8304 33.2154 19.8304V18.8285C33.2199 18.4368 33.2889 17.1844 34.0625 16.002C34.0625 16.002 30.9666 15.9647 27.2227 16.0288C26.5817 16.0385 25.9551 16.0757 25.3371 16.1431ZM26.5941 24.6494C25.5473 24.7948 23.7319 23.9615 23.7319 21.8943C23.7319 20.3565 25.0134 19.1098 26.5941 19.1098H29.7932C29.7932 19.1098 29.6971 20.0642 29.6239 21.2673C29.5121 23.1027 28.1478 24.4336 26.5941 24.6494Z" fill="#A1A2A5"/>
</svg>
