<svg width="64" height="44" viewBox="0 0 64 44" fill="none" xmlns="http://www.w3.org/2000/svg">
<path fill-rule="evenodd" clip-rule="evenodd" d="M22.5077 11.2833C27.1537 11.7898 31.092 15.1768 31.8083 19.795C31.9286 20.5709 32.0015 21.3636 32.0015 22.1452C32.0015 26.6797 29.0931 30.669 24.7913 32.2095C24.7913 32.2095 23.2195 32.981 20.4189 33C14.1919 32.6033 11.8456 29.243 11.8456 29.243C7.95901 25.5945 7.81045 18.1621 7.81045 18.1621V16.2931C7.80193 15.5624 7.67334 13.2259 6.2301 11.02C6.2301 11.02 12.0056 10.9506 18.99 11.0702C20.1858 11.0882 21.3548 11.1576 22.5077 11.2833ZM20.1626 27.1522C22.1154 27.4234 25.5022 25.869 25.5022 22.0125C25.5022 19.1436 23.1116 16.8178 20.1626 16.8178H14.1947C14.1947 16.8178 14.3739 18.5983 14.5105 20.8428C14.719 24.2668 17.2641 26.7496 20.1626 27.1522Z" fill="url(#paint0_linear_662_3102)"/>
<path fill-rule="evenodd" clip-rule="evenodd" d="M22.5077 11.2833C27.1537 11.7898 31.092 15.1768 31.8083 19.795C31.9286 20.5709 32.0015 21.3636 32.0015 22.1452C32.0015 26.6797 29.0931 30.669 24.7913 32.2095C24.7913 32.2095 23.2195 32.981 20.4189 33C14.1919 32.6033 11.8456 29.243 11.8456 29.243C7.95901 25.5945 7.81045 18.1621 7.81045 18.1621V16.2931C7.80193 15.5624 7.67334 13.2259 6.2301 11.02C6.2301 11.02 12.0056 10.9506 18.99 11.0702C20.1858 11.0882 21.3548 11.1576 22.5077 11.2833ZM20.1626 27.1522C22.1154 27.4234 25.5022 25.869 25.5022 22.0125C25.5022 19.1436 23.1116 16.8178 20.1626 16.8178H14.1947C14.1947 16.8178 14.3739 18.5983 14.5105 20.8428C14.719 24.2668 17.2641 26.7496 20.1626 27.1522Z" fill="url(#paint1_linear_662_3102)"/>
<path fill-rule="evenodd" clip-rule="evenodd" d="M42.4207 11.2833C37.7748 11.7898 33.8365 15.1768 33.1202 19.795C32.9999 20.5709 32.9269 21.3636 32.9269 22.1452C32.9269 26.6797 35.8353 30.669 40.1371 32.2095C40.1371 32.2095 41.709 32.981 44.5096 33C50.7366 32.6033 53.0829 29.243 53.0829 29.243C56.9695 25.5945 57.118 18.1621 57.118 18.1621V16.2931C57.1265 15.5624 57.2551 13.2259 58.6984 11.02C58.6984 11.02 52.9229 10.9506 45.9384 11.0702C44.7426 11.0882 43.5737 11.1576 42.4207 11.2833ZM44.7658 27.1522C42.813 27.4234 39.4263 25.869 39.4263 22.0125C39.4263 19.1436 41.8169 16.8178 44.7658 16.8178H50.7338C50.7338 16.8178 50.5546 18.5983 50.418 20.8428C50.2095 24.2668 47.6643 26.7496 44.7658 27.1522Z" fill="url(#paint2_linear_662_3102)"/>
<path fill-rule="evenodd" clip-rule="evenodd" d="M42.4207 11.2833C37.7748 11.7898 33.8365 15.1768 33.1202 19.795C32.9999 20.5709 32.9269 21.3636 32.9269 22.1452C32.9269 26.6797 35.8353 30.669 40.1371 32.2095C40.1371 32.2095 41.709 32.981 44.5096 33C50.7366 32.6033 53.0829 29.243 53.0829 29.243C56.9695 25.5945 57.118 18.1621 57.118 18.1621V16.2931C57.1265 15.5624 57.2551 13.2259 58.6984 11.02C58.6984 11.02 52.9229 10.9506 45.9384 11.0702C44.7426 11.0882 43.5737 11.1576 42.4207 11.2833ZM44.7658 27.1522C42.813 27.4234 39.4263 25.869 39.4263 22.0125C39.4263 19.1436 41.8169 16.8178 44.7658 16.8178H50.7338C50.7338 16.8178 50.5546 18.5983 50.418 20.8428C50.2095 24.2668 47.6643 26.7496 44.7658 27.1522Z" fill="url(#paint3_linear_662_3102)"/>
<defs>
<linearGradient id="paint0_linear_662_3102" x1="-10.7477" y1="-2.23438" x2="39.1053" y2="3.96383" gradientUnits="userSpaceOnUse">
<stop stop-color="#F8955D"/>
<stop offset="1" stop-color="#A8351B"/>
</linearGradient>
<linearGradient id="paint1_linear_662_3102" x1="9.87455" y1="14" x2="29.6535" y2="17.1065" gradientUnits="userSpaceOnUse">
<stop stop-color="#D3683F"/>
<stop offset="1" stop-color="#B64527"/>
</linearGradient>
<linearGradient id="paint2_linear_662_3102" x1="75.6762" y1="-2.23438" x2="25.8232" y2="3.96383" gradientUnits="userSpaceOnUse">
<stop stop-color="#F8955D"/>
<stop offset="1" stop-color="#A8351B"/>
</linearGradient>
<linearGradient id="paint3_linear_662_3102" x1="55.0539" y1="14" x2="35.2749" y2="17.1065" gradientUnits="userSpaceOnUse">
<stop stop-color="#D3683F"/>
<stop offset="1" stop-color="#B64527"/>
</linearGradient>
</defs>
</svg>
