<svg width="685" height="152" viewBox="0 0 685 152" fill="none" xmlns="http://www.w3.org/2000/svg">
<path d="M42.8891 0V56.969H101.374V0H144.264V151.629H101.374V92.4934H42.8891V151.629H-0.000127376V0H42.8891Z" fill="#FAFAFA"/>
<path fill-rule="evenodd" clip-rule="evenodd" d="M267.337 1.9524C299.358 5.44374 326.502 28.7871 331.438 60.617C332.268 65.9646 332.77 71.4278 332.77 76.8153C332.77 108.068 312.725 135.563 283.076 146.18C283.076 146.18 272.243 151.498 252.94 151.629C210.023 148.894 193.851 125.734 193.851 125.734C167.064 100.588 166.041 49.3625 166.041 49.3625V36.4813C165.982 31.4447 165.096 15.341 155.148 0.138158C155.148 0.138158 194.954 -0.340381 243.092 0.483761C251.334 0.608109 259.391 1.08597 267.337 1.9524ZM251.174 111.324C264.633 113.194 287.976 102.48 287.976 75.9004C287.976 56.127 271.499 40.0975 251.174 40.0975H210.042C210.042 40.0975 211.277 52.3688 212.219 67.8388C213.655 91.4375 231.197 108.549 251.174 111.324Z" fill="#FAFAFA"/>
<path fill-rule="evenodd" clip-rule="evenodd" d="M404.581 1.9524C372.56 5.44374 345.416 28.7871 340.48 60.617C339.65 65.9646 339.147 71.4278 339.147 76.8153C339.147 108.068 359.193 135.563 388.842 146.18C388.842 146.18 399.675 151.498 418.978 151.629C461.895 148.894 478.067 125.734 478.067 125.734C504.854 100.588 505.877 49.3625 505.877 49.3625V36.4813C505.936 31.4447 506.822 15.341 516.77 0.138158C516.77 0.138158 476.964 -0.340381 428.826 0.483761C420.584 0.608109 412.527 1.08597 404.581 1.9524ZM420.744 111.324C407.285 113.194 383.942 102.48 383.942 75.9004C383.942 56.127 400.419 40.0975 420.744 40.0975H461.876C461.876 40.0975 460.641 52.3688 459.699 67.8388C458.263 91.4375 440.721 108.549 420.744 111.324Z" fill="#FAFAFA"/>
<path d="M527.652 151.629H599.351C649.605 151.629 684.046 122.386 684.046 75.8143C684.046 29.2427 649.605 0 599.351 0H527.652V151.629ZM570.542 117.404V34.2247H597.618C623.395 34.2247 640.724 49.6042 640.724 75.8143C640.724 102.024 623.395 117.404 597.618 117.404H570.542Z" fill="#FAFAFA"/>
</svg>
