<svg width="20" height="20" viewBox="0 0 20 20" fill="none" xmlns="http://www.w3.org/2000/svg">
<g clip-path="url(#clip0_662_3033)">
<circle cx="10" cy="10.0002" r="1.66667" stroke="#FAFAFA" stroke-width="1.25"/>
<path d="M4.49884 4.89941C3.72406 5.73448 3.16146 6.7255 2.83388 7.78723L3.66664 8.26802C4.99997 9.03782 4.99997 10.9623 3.66664 11.7321L2.83246 12.2137C2.99513 12.7388 3.21843 13.254 3.50485 13.7501C3.79126 14.2461 4.12578 14.6971 4.49912 15.1005L5.33333 14.6189C6.66666 13.8491 8.33333 14.8113 8.33333 16.3509L8.33333 17.3126C9.41661 17.5597 10.5561 17.568 11.6667 17.3146L11.6667 16.351C11.6667 14.8114 13.3334 13.8491 14.6667 14.6189L15.5012 15.1007C16.276 14.2657 16.8386 13.2746 17.1662 12.2129L16.3334 11.7321C15.0001 10.9623 15.0001 9.03779 16.3334 8.26799L17.1676 7.78635C17.0049 7.26133 16.7816 6.74614 16.4952 6.25007C16.2088 5.75398 15.8743 5.30299 15.5009 4.8996L14.6667 5.38122C13.3334 6.15102 11.6667 5.18877 11.6667 3.64917L11.6667 2.68757C10.5835 2.4404 9.44392 2.43212 8.33333 2.68556L8.33333 3.64915C8.33333 5.18875 6.66666 6.151 5.33333 5.3812L4.49884 4.89941Z" stroke="#FAFAFA" stroke-width="1.25" stroke-linejoin="round"/>
</g>
<defs>
<clipPath id="clip0_662_3033">
<rect width="20" height="20" fill="white"/>
</clipPath>
</defs>
</svg>
